<?xml version="1.0" encoding="UTF-8"?>
<svg width="300px" height="300px" viewBox="0 0 300 300" version="1.1" xmlns="http://www.w3.org/2000/svg" xmlns:xlink="http://www.w3.org/1999/xlink">
    <!-- Generator: Sketch 52.3 (67297) - http://www.bohemiancoding.com/sketch -->
    <title>Artboard</title>
    <desc>Created with Sketch.</desc>
    <g id="Artboard" stroke="none" stroke-width="1" fill="none" fill-rule="evenodd">
        <g id="apollo-seeklogo.com" transform="translate(19.000000, 17.000000)" fill="#112B49" fill-rule="nonzero">
            <path d="M163.98232,185.492707 L192.259898,185.492707 L147.119141,66.5507584 L115.854148,66.5507584 L70.7133906,185.492707 L98.9930156,185.492707 L106.369953,165.345207 L149.021711,165.345207 L141.300898,143.050995 L113.217773,143.050995 L131.486133,91.8728104 L163.98232,185.492707 Z M257.229758,97.4311931 C256.224742,93.7570537 252.487148,91.5989125 248.852922,92.6234321 C245.233023,93.6437955 243.111438,97.4509354 244.116453,101.126114 C246.954445,111.501193 248.392375,122.225399 248.392375,133.00052 C248.392375,198.719401 195.730375,252.183532 131,252.183532 C66.269625,252.183532 13.6086484,198.719401 13.6086484,133.00052 C13.6086484,67.2805988 66.269625,13.815429 131,13.815429 C158.420961,13.815429 184.953578,23.7052645 205.894133,41.3049738 C205.079477,43.2792003 204.627117,45.4456541 204.627117,47.7191317 C204.627117,56.8992848 211.956977,64.3410795 220.999047,64.3410795 C230.041117,64.3410795 237.370977,56.8992848 237.370977,47.7191317 C237.370977,38.5389787 230.041117,31.097184 220.999047,31.097184 C219.25818,31.097184 217.582812,31.378771 216.008766,31.8899918 C192.428766,11.4879199 162.228148,0 131,0 C58.7668047,0 0,59.6632018 0,133.00052 C0,206.336798 58.7668047,266 131,266 C203.233195,266 262,206.336798 262,133.00052 C262,120.976441 260.396273,109.008473 257.229758,97.4311931 Z" id="Shape"></path>
        </g>
    </g>
</svg>