<?xml version="1.0" encoding="UTF-8"?>
<svg width="2711px" height="2710px" viewBox="0 0 2711 2710" version="1.1" xmlns="http://www.w3.org/2000/svg" xmlns:xlink="http://www.w3.org/1999/xlink">
    <!-- Generator: Sketch 52.3 (67297) - http://www.bohemiancoding.com/sketch -->
    <title>Artboard</title>
    <desc>Created with Sketch.</desc>
    <g id="Artboard" stroke="none" stroke-width="1" fill="none" fill-rule="evenodd">
        <g id="express" transform="translate(106.000000, 991.000000)" fill="#222222" fill-rule="nonzero">
            <path d="M16.2695312,564.594727 L16.2695312,286.367188 L363.652344,286.367188 L363.652344,270.092773 L16.2695312,270.092773 L16.2695312,16.2695312 L385.615234,16.2695312 L385.615234,0 L0,0 L0,580.864258 L388.867188,580.864258 L388.867188,564.594727 L16.2744141,564.594727 L16.2695312,564.594727 Z M702.084961,162.705078 L558.09082,352.260742 L417.34375,162.709961 L396.191406,162.709961 L548.325195,364.467773 L381.542969,580.859375 L401.069336,580.859375 L558.081055,376.660156 L715.908203,580.859375 L736.245117,580.859375 L568.657227,364.458008 L721.601562,162.700195 L702.080078,162.700195 L702.084961,162.705078 Z M785.063477,724.047852 L785.063477,463.720703 L786.689453,463.720703 C796.455078,501.68457 815.708008,532.192383 844.453125,555.244141 C873.198242,578.291016 909.804688,589.819336 954.277344,589.819336 C983.022461,589.819336 1008.51562,583.989258 1030.75195,572.329102 C1052.98828,560.668945 1071.5625,544.804688 1086.47949,524.736328 C1101.3916,504.667969 1112.7832,481.347656 1120.64941,454.770508 C1128.51074,428.198242 1132.44629,400.263672 1132.44629,370.981445 C1132.44629,339.521484 1128.37402,310.50293 1120.23926,283.930664 C1112.10449,257.353516 1100.30762,234.301758 1084.85352,214.780273 C1069.39453,195.253906 1050.68359,180.063477 1028.71582,169.223633 C1006.75293,158.374023 981.938477,152.949219 954.277344,152.949219 C933.125,152.949219 913.466797,156.069336 895.297852,162.304688 C877.128906,168.544922 860.996094,177.353516 846.894531,188.745117 C832.710378,200.22425 820.364047,213.803897 810.283203,229.013672 C799.980469,244.472656 792.114258,261.420898 786.689453,279.863281 L785.063477,279.863281 L785.063477,162.705078 L768.793945,162.705078 L768.793945,724.047852 L785.063477,724.047852 Z M954.277344,574.355469 C903.300781,574.355469 862.348633,556.865234 831.435547,521.884766 C800.522461,486.904297 785.063477,436.59668 785.063477,370.97168 C785.063477,343.852539 788.862305,318.09082 796.455078,293.686523 C804.047852,269.282227 815.029297,247.856445 829.399414,229.418945 C843.774414,210.976562 861.538086,196.333008 882.685547,185.488281 C903.837891,174.638672 927.705078,169.213867 954.277344,169.213867 C981.396484,169.213867 1005.12695,174.638672 1025.46387,185.488281 C1045.80078,196.333008 1062.61719,211.113281 1075.90332,229.824219 C1089.18945,248.535156 1099.22363,269.960938 1106.00586,294.091797 C1112.7832,318.227539 1116.17188,343.852539 1116.17188,370.97168 C1116.17188,395.380859 1113.05664,419.65332 1106.81641,443.78418 C1100.58105,467.919922 1090.95215,489.614258 1077.93457,508.87207 C1064.92188,528.120117 1048.24707,543.847656 1027.90527,556.054688 C1007.56348,568.256836 983.022461,574.355469 954.277344,574.355469 Z M1221.93359,580.864258 L1221.93359,344.125977 C1221.93359,321.347656 1225.18555,299.106445 1231.69922,277.416992 C1238.20312,255.722656 1248.2373,236.601563 1261.79688,220.063477 C1275.35645,203.520508 1292.57324,190.50293 1313.45703,181.010742 C1334.33594,171.518555 1359.15039,167.587891 1387.89551,169.213867 L1387.89551,152.944336 C1362.94434,152.407227 1341.11816,155.112305 1322.40723,161.079102 C1303.69141,167.045898 1287.55859,175.180664 1273.99902,185.488281 C1260.43945,195.791016 1249.59473,207.856445 1241.45996,221.689453 C1233.33131,235.500492 1227.29871,250.442109 1223.55957,266.025391 L1221.93359,266.025391 L1221.93359,162.705078 L1205.66406,162.705078 L1205.66406,580.869141 L1221.93359,580.869141 L1221.93359,580.864258 Z M1408.23242,375.039062 L1758.05176,375.039062 C1759.14062,346.293945 1756.29395,318.637695 1749.51172,292.060547 C1742.73437,265.483398 1731.88477,241.889648 1716.97266,221.28418 C1702.05566,200.673828 1682.80273,184.130859 1659.20898,171.655273 C1635.61523,159.179687 1607.54883,152.944336 1575.00977,152.944336 C1551.68457,152.944336 1528.90625,157.827148 1506.66992,167.592773 C1484.43359,177.353516 1464.90723,191.586914 1448.0957,210.297852 C1431.28418,229.008789 1417.72461,251.923828 1407.42188,279.047852 C1397.11914,306.162109 1391.96289,337.075195 1391.96289,371.787109 C1391.96289,402.700195 1395.48828,431.582031 1402.53906,458.427734 C1409.58984,485.273438 1420.43457,508.598633 1435.07813,528.393555 C1449.72656,548.188477 1468.57422,563.510742 1491.62109,574.355469 C1514.66797,585.205078 1542.46582,590.356445 1575.00977,589.814453 C1622.73438,589.814453 1662.87109,576.386719 1695.41016,549.545898 C1727.9541,522.695312 1747.20703,484.868164 1753.17383,436.054688 L1736.9043,436.054688 C1729.85352,482.158203 1711.81641,516.733398 1682.80273,539.780273 C1653.78418,562.832031 1617.31445,574.355469 1573.37891,574.355469 C1543.5498,574.355469 1518.33008,569.204102 1497.71973,558.901367 C1477.11426,548.598633 1460.29785,534.492188 1447.28027,516.59668 C1434.26758,498.696289 1424.63867,477.680664 1418.40332,453.544922 C1412.16309,429.414062 1408.77441,403.242188 1408.23242,375.039062 Z M1741.78223,358.769531 L1408.2373,358.769531 C1409.8584,329.482422 1415.2832,303.178711 1424.50195,279.858398 C1433.72559,256.533203 1445.79102,236.601562 1460.70801,220.063477 C1475.62012,203.520508 1492.97852,190.913086 1512.77344,182.231445 C1532.56836,173.554687 1553.85742,169.213867 1576.63574,169.213867 C1603.75488,169.213867 1627.6123,174.233398 1648.22754,184.267578 C1668.83301,194.301758 1686.05469,207.998047 1699.8877,225.351562 C1713.71582,242.705078 1724.15527,262.910156 1731.20605,285.957031 C1738.25684,309.008789 1741.78223,333.28125 1741.78223,358.769531 Z M2095.67383,286.367188 L2111.94336,286.367188 C2111.94336,239.72168 2098.38379,205.825195 2071.26953,184.672852 C2044.14551,163.520508 2007.26562,152.944336 1960.625,152.944336 C1934.58984,152.944336 1912.62695,156.201172 1894.72656,162.709961 C1876.83105,169.213867 1862.1875,177.62207 1850.7959,187.924805 C1839.40918,198.227539 1831.27441,209.619141 1826.3916,222.094727 C1821.50879,234.570312 1819.06738,246.503906 1819.06738,257.890625 C1819.06738,280.668945 1823.13477,298.837891 1831.27441,312.397461 C1839.40918,325.957031 1852.15332,336.533203 1869.50684,344.125977 C1881.44043,349.545898 1894.99512,354.428711 1910.18555,358.774414 C1925.37109,363.110352 1942.99805,367.719727 1963.06641,372.597656 C1980.96191,376.943359 1998.58887,381.279297 2015.94727,385.615234 C2033.30078,389.956055 2048.62305,395.786133 2061.90918,403.105469 C2075.2002,410.429688 2086.04492,419.785156 2094.45312,431.176758 C2102.85645,442.563477 2107.06055,457.480469 2107.06055,475.917969 C2107.06055,493.818359 2102.86133,509.003906 2094.45312,521.474609 C2086.11645,533.885156 2075.14444,544.303648 2062.31934,551.987305 C2049.30176,559.848633 2034.79004,565.541992 2018.79395,569.067383 C2002.79297,572.592773 1987.20215,574.355469 1972.0166,574.355469 C1922.66113,574.355469 1884.8291,563.374023 1858.52539,541.411133 C1832.22168,519.443359 1819.07227,484.868164 1819.07227,437.680664 L1802.79785,437.680664 C1802.79785,490.292969 1817.03613,528.798828 1845.50781,553.208008 C1873.98437,577.612305 1916.15234,589.814453 1972.0166,589.814453 C1989.91211,589.814453 2007.94434,587.77832 2026.11816,583.710938 C2044.28223,579.643555 2060.55664,573.00293 2074.92676,563.779297 C2089.17493,554.686413 2101.14305,542.440972 2109.90723,527.988281 C2118.85742,513.339844 2123.33496,495.444336 2123.33496,474.291992 C2123.33496,454.223633 2119.39941,437.954102 2111.53809,425.478516 C2103.67188,413.007813 2093.36914,402.700195 2080.62012,394.56543 C2067.87598,386.430664 2053.50586,380.058594 2037.50488,375.449219 C2021.41383,370.812574 2005.27696,366.33644 1989.09668,362.021484 C1969.18397,356.797132 1949.2522,351.64573 1929.30176,346.567383 C1912.22168,342.226562 1896.35742,337.075195 1881.71387,331.108398 C1867.6123,325.141602 1856.35742,316.601562 1847.94922,305.483398 C1839.54102,294.365234 1835.3418,278.500977 1835.3418,257.890625 C1835.3418,254.09668 1836.42578,247.314453 1838.59375,237.553711 C1840.76172,227.788086 1845.91797,217.890625 1854.05273,207.856445 C1862.1875,197.827148 1874.6582,188.876953 1891.47461,181.010742 C1908.28613,173.149414 1931.33789,169.213867 1960.625,169.213867 C1980.69336,169.213867 1998.99414,171.386719 2015.53711,175.722656 C2032.08008,180.063477 2046.31836,186.977539 2058.24707,196.469727 C2070.18066,205.961914 2079.39941,218.027344 2085.9082,232.670898 C2092.41699,247.319336 2095.67383,265.214844 2095.67383,286.367188 Z M2472.33887,286.367188 L2488.6084,286.367188 C2488.6084,239.72168 2475.05371,205.825195 2447.93457,184.672852 C2420.81543,163.520508 2383.93555,152.944336 2337.29004,152.944336 C2311.25977,152.944336 2289.29199,156.201172 2271.39648,162.709961 C2253.49609,169.213867 2238.85254,177.62207 2227.46582,187.924805 C2216.07422,198.227539 2207.93945,209.619141 2203.05664,222.094727 C2198.17383,234.570312 2195.7373,246.503906 2195.7373,257.890625 C2195.7373,280.668945 2199.80469,298.837891 2207.94434,312.397461 C2216.07422,325.957031 2228.82324,336.533203 2246.17676,344.125977 C2258.11035,349.545898 2271.66504,354.428711 2286.85059,358.774414 C2302.03613,363.110352 2319.66309,367.719727 2339.73145,372.597656 C2357.63184,376.943359 2375.25879,381.279297 2392.6123,385.615234 C2409.9707,389.956055 2425.28809,395.786133 2438.5791,403.105469 C2451.86523,410.429688 2462.71484,419.785156 2471.11816,431.176758 C2479.52637,442.563477 2483.73047,457.480469 2483.73047,475.917969 C2483.73047,493.818359 2479.52637,509.003906 2471.11816,521.474609 C2462.78289,533.884624 2451.81259,544.303075 2438.98926,551.987305 C2425.9668,559.848633 2411.45996,565.541992 2395.45898,569.067383 C2379.46289,572.592773 2363.86719,574.355469 2348.68164,574.355469 C2299.32617,574.355469 2261.49902,563.374023 2235.19531,541.411133 C2208.88672,519.443359 2195.7373,484.868164 2195.7373,437.680664 L2179.46777,437.680664 C2179.46777,490.292969 2193.70117,528.798828 2222.17773,553.208008 C2250.64941,577.612305 2292.81738,589.814453 2348.68164,589.814453 C2366.58203,589.814453 2384.61426,587.77832 2402.7832,583.710938 C2420.94727,579.643555 2437.22168,573.00293 2451.59668,563.779297 C2465.84485,554.686413 2477.81298,542.440972 2486.57715,527.988281 C2495.52734,513.339844 2500,495.444336 2500,474.291992 C2500,454.223633 2496.06934,437.954102 2488.20312,425.478516 C2480.3418,413.007813 2470.03906,402.700195 2457.29004,394.56543 C2444.5459,386.430664 2430.1709,380.058594 2414.1748,375.449219 C2398.08375,370.812571 2381.94689,366.336437 2365.7666,362.021484 C2345.8539,356.797131 2325.92212,351.645729 2305.97168,346.567383 C2288.88672,342.226562 2273.02246,337.075195 2258.37891,331.108398 C2244.27734,325.141602 2233.02246,316.601562 2224.61914,305.483398 C2216.21094,294.365234 2212.00684,278.500977 2212.00684,257.890625 C2212.00684,254.09668 2213.09082,247.314453 2215.26367,237.553711 C2217.43164,227.788086 2222.58789,217.890625 2230.71777,207.856445 C2238.85254,197.827148 2251.32813,188.876953 2268.13965,181.010742 C2284.95605,173.149414 2308.00293,169.213867 2337.29492,169.213867 C2357.36328,169.213867 2375.66406,171.386719 2392.20703,175.722656 C2408.75,180.063477 2422.9834,186.977539 2434.91699,196.469727 C2446.85059,205.961914 2456.06934,218.027344 2462.57813,232.670898 C2469.08691,247.319336 2472.34375,265.214844 2472.34375,286.367187 L2472.33887,286.367188 Z" id="Shape"></path>
        </g>
    </g>
</svg>