<?xml version="1.0" encoding="UTF-8"?>
<svg width="1030px" height="1030px" viewBox="0 0 1030 1030" version="1.1" xmlns="http://www.w3.org/2000/svg" xmlns:xlink="http://www.w3.org/1999/xlink">
    <!-- Generator: Sketch 52.3 (67297) - http://www.bohemiancoding.com/sketch -->
    <title>Artboard</title>
    <desc>Created with Sketch.</desc>
    <g id="Artboard" stroke="none" stroke-width="1" fill="none" fill-rule="evenodd">
        <g id="ionic" transform="translate(79.000000, 79.000000)" fill="#4E8EF7">
            <circle id="Oval" cx="436.391602" cy="435.893555" r="177.96875"></circle>
            <path d="M799.584961,133.90625 C799.584961,100.102539 772.172852,72.7099609 738.378906,72.7099609 C723.652915,72.7011048 709.422838,78.0302277 698.325195,87.7099609 C625.341797,32.6708984 534.619141,0 436.386719,0 C196.035156,0 0.498046875,195.541992 0.498046875,435.898438 C0.498046875,676.245117 196.040039,871.791992 436.391602,871.791992 C676.743164,871.791992 872.280273,676.245117 872.280273,435.898438 C872.280273,337.666016 839.614258,246.933594 784.580078,173.955078 C794.261633,162.8601 799.592613,148.631432 799.584961,133.90625 Z M436.386719,857.128906 C204.121094,857.128906 15.1513672,668.15918 15.1513672,435.888672 C15.1513672,203.62793 204.121094,14.6582031 436.391602,14.6582031 C530.825195,14.6582031 618.095703,45.9033203 688.432617,98.59375 C681.10102,108.906679 677.165328,121.247957 677.172852,133.901367 C677.172852,167.700195 704.575195,195.092773 738.369141,195.092773 C751.533203,195.092773 763.686523,190.90332 773.671875,183.833008 C826.362305,254.165039 857.607422,341.435547 857.607422,435.883789 C857.617187,668.15918 668.657227,857.124023 436.386719,857.124023 L436.386719,857.128906 Z" id="Shape" fill-rule="nonzero"></path>
        </g>
    </g>
</svg>