<?xml version="1.0" encoding="UTF-8"?>
<svg width="2565px" height="2565px" viewBox="0 0 2565 2565" version="1.1" xmlns="http://www.w3.org/2000/svg" xmlns:xlink="http://www.w3.org/1999/xlink">
    <!-- Generator: Sketch 52.3 (67297) - http://www.bohemiancoding.com/sketch -->
    <title>Artboard</title>
    <desc>Created with Sketch.</desc>
    <g id="Artboard" stroke="none" stroke-width="1" fill="none" fill-rule="evenodd">
        <g id="jira" transform="translate(28.000000, 693.000000)" fill="#264970">
            <path d="M2289.59473,251.015725 C2287.29565,243.709308 2280.52269,238.741036 2272.86621,238.744605 L2109.19434,238.744605 C2101.54095,238.743738 2094.77224,243.71179 2092.47559,251.015725 L1885.98145,906.23589 C1884.29531,911.567204 1885.25153,917.383371 1888.55568,921.893507 C1891.85983,926.403643 1897.11576,929.067001 1902.70508,929.063495 L2015.38574,929.063495 C2023.16074,929.066687 2030.00881,923.945736 2032.20703,916.48462 L2174.4043,434.594025 C2174.4043,434.594025 2178.125,422.557385 2191.00586,422.557385 C2204.0918,422.557385 2207.28516,435.062985 2207.28516,435.07764 L2273.25684,663.59794 L2182.61719,663.59794 C2174.76247,663.597213 2167.86558,668.822591 2165.7373,676.38687 L2140.29785,766.852185 C2138.81166,772.138889 2139.88891,777.816876 2143.20801,782.191085 C2146.52091,786.573208 2151.69559,789.148147 2157.1875,789.147325 L2310.14648,789.147325 L2349.88281,916.72887 C2352.16546,924.064424 2358.95149,929.062209 2366.63086,929.063495 L2479.36035,929.063495 C2484.94809,929.06275 2490.20108,926.398366 2493.5043,921.889509 C2496.80751,917.380653 2497.76559,911.566973 2496.08398,906.23589 L2289.58984,251.01084" id="Path"></path>
            <path d="M1519.92676,366.31638 L1656.31836,366.31638 C1726.85547,366.31638 1741.01563,394.08272 1741.01563,438.892825 L1741.01563,505.81244 C1741.01563,561.584485 1719.64844,580.401505 1656.31836,580.401505 L1519.92676,580.401505 L1519.92676,366.31638 Z M1936.37695,900.10033 L1786.50391,683.807185 C1851.03516,657.027615 1883.74023,600.898965 1883.74023,516.964895 L1883.74023,428.75645 C1883.74023,297.34018 1815.16113,238.744605 1661.37695,238.744605 L1394.74609,238.744605 C1385.06335,238.744603 1377.21242,246.594674 1377.20703,256.281755 L1377.20703,911.506805 C1377.20574,916.161833 1379.05287,920.626718 1382.34208,923.919236 C1385.63129,927.211754 1390.09315,929.0622 1394.74609,929.063495 L1502.3877,929.063495 C1512.07504,929.060798 1519.92676,921.203377 1519.92676,911.51169 L1519.92676,706.01928 L1630.08789,706.01928 L1779.91211,921.530825 C1783.19144,926.246892 1788.56911,929.060078 1794.31152,929.063495 L1923.05664,929.063495 C1929.90751,929.065511 1936.13248,925.076638 1938.99567,918.849976 C1941.85886,912.623314 1940.83612,905.298762 1936.37695,900.095445 L1936.37695,900.10033 Z M1246.42578,238.744605 L1138.7793,238.744605 C1129.09655,238.744603 1121.24563,246.594674 1121.24023,256.281755 L1121.24023,911.506805 C1121.23894,916.161833 1123.08607,920.626718 1126.37528,923.919236 C1129.6645,927.211754 1134.12635,929.0622 1138.7793,929.063495 L1246.42578,929.063495 C1256.11503,929.063495 1263.96973,921.205284 1263.96973,911.51169 L1263.96973,256.28664 C1263.96843,251.632907 1262.11933,247.170294 1258.8292,243.880524 C1255.53907,240.590755 1251.07743,238.743309 1246.42578,238.744605 Z M994.335938,238.744605 L885.380859,238.744605 C876.150204,238.744566 868.659724,246.216553 868.632813,255.451305 L868.632813,768.16625 C868.632813,832.5994 819.555664,853.78076 786.342773,855.47097 C781.865234,855.690795 776.655273,858.514325 773.793945,862.70077 C770.923959,866.893304 770.120478,872.165924 771.611328,877.02359 L798.100586,963.23407 C800.263672,970.28801 807.866211,974.826175 820.229492,974.826175 C924.477539,974.826175 1011.03516,892.93892 1011.03516,783.177855 L1011.03516,255.461075 C1011.03775,251.02849 1009.27951,246.776565 1006.14752,243.641338 C1003.01553,240.50611 998.766538,238.744604 994.335938,238.744605 Z" id="Shape" fill-rule="nonzero"></path>
            <g id="Group">
                <path d="M150.620117,59.992685 C117.143555,59.992685 90.0390625,87.075125 90.0390625,120.64973 C90.0390625,154.14129 117.143555,181.32143 150.620117,181.32143 C184.116211,181.32143 211.196289,154.14129 211.196289,120.64973 C211.196289,87.075125 184.121094,59.992685 150.620117,59.992685 M548.613281,59.992685 C515.12207,59.992685 488.051758,87.075125 488.051758,120.64973 C488.051758,154.14129 515.12207,181.32143 548.613281,181.32143 C582.011719,181.32143 609.179687,154.14129 609.179687,120.64973 C609.179687,87.075125 582.011719,60.03665 548.613281,59.992685 M349.614258,4.645635 C316.142578,4.645635 289.038086,31.72319 289.038086,65.307565 C289.038086,98.799125 316.137695,125.979265 349.614258,125.979265 C383.110352,125.979265 410.185547,98.799125 410.185547,65.307565 C410.185547,31.72319 383.105469,4.645635 349.609375,4.645635 M691.826172,229.01857 C688.51104,226.493434 684.459587,225.125756 680.292969,225.125225 C678.012695,225.125225 675.703125,225.54045 673.525391,226.38067 C632.509766,242.076175 590.849609,253.99069 552.832031,262.85208 C545.078125,264.65953 538.818359,270.42383 536.220703,277.34099 C508.520508,353.249005 437.788086,425.53235 363.579102,501.24008 C360.600586,504.068495 356.430664,507.800635 349.638672,507.800635 C342.861328,507.800635 338.730469,504.185735 335.698242,501.24008 C261.499023,425.53235 190.766602,353.49814 163.056641,277.58524 C160.458984,270.672965 154.194336,264.91355 146.455078,263.09633 C108.413086,254.23494 66.6552734,241.949165 25.6835937,226.26343 C23.5162525,225.435892 21.2163049,225.01046 18.8964844,225.007985 C14.7900391,225.007985 10.8105469,226.297625 7.45117187,228.867135 C2.28285971,232.820532 -0.497022199,239.149994 0.087890625,245.632455 C6.37207031,308.756425 31.3037109,370.46863 76.2988281,435.131375 C118.59375,495.930085 173.759766,552.205285 227.094727,606.624185 C325.366211,706.913235 418.203125,801.623615 426.347656,911.45307 C427.086288,921.369605 435.343626,929.038438 445.283203,929.03907 L560.742187,929.03907 C565.938708,929.034453 570.906667,926.901112 574.489646,923.135637 C578.072626,919.370162 579.958047,914.301052 579.707031,909.10827 C576.074219,835.67695 548.452148,762.13816 495.263672,684.32011 C484.116211,668.00421 472.177734,652.12796 459.692383,636.59366 C454.619141,630.267585 456.743164,622.40762 460.620117,618.441 C464.458008,614.51346 468.310547,610.59569 472.192383,606.624185 C525.527344,552.205285 580.688477,495.930085 622.988281,435.131375 C667.978516,370.45886 692.900391,309.11303 699.189453,245.99883 C699.814453,239.6581 696.938477,232.92657 691.826172,229.01857 M225.742188,692.05795 C223.007812,689.200225 218.999023,686.28388 212.260742,686.28388 C203.642578,686.28388 198.530273,692.24358 196.59668,695.19412 C148.032227,769.128595 122.949219,838.91082 119.482422,909.034995 C119.244144,914.243865 121.129627,919.326371 124.707031,923.11845 C128.318974,926.886596 133.306952,929.023747 138.525391,929.03907 L253.78418,929.03907 C263.743779,928.995753 272.005831,921.318438 272.783203,911.38468 C275.292969,877.585365 285.810547,843.70789 304.960938,808.10601 C311.601562,795.790925 306.44043,784.21836 302.62207,779.27474 C283.62793,754.55664 260.356445,728.192295 225.742188,692.05795" id="Shape" fill-rule="nonzero"></path>
                <path d="M349.746094,285.60641 C385.927734,285.60641 406.914062,283.432585 414.287109,283.432585 C423.222656,283.432585 431.75293,290.7552 431.75293,301.00393 C431.75293,303.99355 431.044922,306.13318 430.34668,308.023675 C425.546875,320.85657 403.676758,367.034475 362.958984,406.64694 C358.388672,411.09229 353.212891,411.92274 349.648438,411.92274 L349.609375,411.92274 C346.049805,411.92274 340.878906,411.09229 336.313477,406.64694 C295.59082,367.034475 273.71582,320.85657 268.930664,308.01879 C268.222656,306.13318 267.514648,303.99355 267.514648,301.00393 C267.514648,290.7552 276.05957,283.432585 284.995117,283.432585 C292.368164,283.432585 313.339844,285.60641 349.511719,285.60641 L349.750977,285.60641" id="Path"></path>
            </g>
        </g>
    </g>
</svg>