<?xml version="1.0" encoding="UTF-8"?>
<svg width="2658px" height="2652px" viewBox="0 0 2658 2652" version="1.1" xmlns="http://www.w3.org/2000/svg" xmlns:xlink="http://www.w3.org/1999/xlink">
    <!-- Generator: Sketch 52.3 (67297) - http://www.bohemiancoding.com/sketch -->
    <title>Artboard</title>
    <desc>Created with Sketch.</desc>
    <g id="Artboard" stroke="none" stroke-width="1" fill="none" fill-rule="evenodd">
        <g id="laravel" transform="translate(66.000000, 449.000000)" fill="#FB503B" fill-rule="nonzero">
            <path d="M2491.08205,829.369798 C2473.24614,811.533888 2244.35196,523.186683 2205.70749,475.624257 C2164.09037,428.061831 2146.25446,436.979786 2119.50059,439.952438 C2092.74673,442.925089 1804.39952,493.460166 1771.70036,496.432818 C1739.00119,502.378121 1718.19263,514.268728 1739.00119,543.995244 C1756.8371,570.749108 1947.0868,838.287753 1988.70392,900.713436 L1230.67776,1082.04518 L630.20214,74.3162901 C606.420927,38.6444709 600.475624,26.7538644 546.967895,29.7265161 C493.460166,32.6991677 74.3162901,68.3709869 44.5897741,68.3709869 C14.863258,71.3436385 -17.8359096,83.2342449 11.8906064,154.577883 C41.6171225,225.921522 517.241379,1248.51367 529.131986,1278.24019 C541.022592,1307.96671 576.694411,1355.52913 656.956005,1337.69322 C740.19025,1316.88466 1025.5648,1242.56837 1183.11534,1200.95125 C1266.34958,1349.58383 1432.81807,1652.79429 1465.51724,1697.38407 C1507.13436,1756.8371 1536.86088,1744.94649 1599.28656,1727.11058 C1649.82164,1712.24732 2378.12128,1450.65398 2410.82045,1435.79073 C2443.51962,1420.92747 2464.32818,1412.00951 2440.54697,1379.31034 C2422.71106,1355.52913 2232.46136,1096.90844 2131.3912,963.13912 C2199.76219,945.30321 2446.49227,879.904875 2473.24614,870.98692 C2502.97265,862.068966 2508.91795,847.205707 2491.08205,829.369798 Z M1114.74435,1111.7717 C1105.8264,1114.74435 680.737218,1215.81451 659.928656,1221.75981 C636.147444,1227.70511 636.147444,1224.73246 636.147444,1215.81451 C630.20214,1206.89655 130.796671,172.413793 121.878716,160.523187 C115.933413,148.63258 115.933413,136.741974 121.878716,136.741974 C127.824019,136.741974 523.186683,101.070155 535.077289,101.070155 C549.940547,101.070155 546.967895,104.042806 552.913199,112.960761 C552.913199,112.960761 1108.79905,1073.12723 1117.717,1087.99049 C1129.60761,1102.85375 1123.66231,1108.79905 1114.74435,1111.7717 Z M2309.7503,1334.72057 C2315.6956,1346.61118 2324.61356,1352.55648 2300.83234,1358.50178 C2280.02378,1367.41974 1584.42331,1602.25922 1569.56005,1608.20452 C1554.69679,1614.14982 1545.77883,1617.12247 1527.94293,1590.36861 C1510.10702,1563.61474 1284.18549,1174.19738 1284.18549,1174.19738 L2024.37574,980.97503 C2042.21165,975.029727 2048.15696,972.057075 2060.04756,989.892985 C2071.93817,1010.70155 2303.80499,1325.80262 2309.7503,1334.72057 Z M2357.31272,811.533888 C2339.47681,814.50654 2068.96552,882.877527 2068.96552,882.877527 L1846.01665,579.667063 C1840.07134,570.749108 1834.12604,561.831153 1848.9893,558.858502 C1863.85256,555.88585 2116.52794,511.296076 2128.41855,508.323424 C2140.30916,505.350773 2149.22711,502.378121 2164.09037,523.186683 C2178.95363,541.022592 2369.20333,784.780024 2378.12128,793.697979 C2387.03924,802.615933 2375.14863,808.561237 2357.31272,811.533888 Z" id="Shape"></path>
        </g>
    </g>
</svg>