<?xml version="1.0" encoding="UTF-8"?>
<svg width="770px" height="770px" viewBox="0 0 770 770" version="1.1" xmlns="http://www.w3.org/2000/svg" xmlns:xlink="http://www.w3.org/1999/xlink">
    <!-- Generator: Sketch 52.3 (67297) - http://www.bohemiancoding.com/sketch -->
    <title>Artboard</title>
    <desc>Created with Sketch.</desc>
    <g id="Artboard" stroke="none" stroke-width="1" fill="none" fill-rule="evenodd">
        <g id="mongodb" transform="translate(230.000000, 38.000000)">
            <path d="M171.157227,694.907227 L152.685547,688.59375 C152.685547,688.59375 154.941406,594.423828 121.142578,587.666016 C98.6181641,561.52832 124.755859,-520.795898 205.859375,584.057617 C205.859375,584.057617 177.919922,598.022461 172.963867,621.90918 C167.553711,645.341797 171.157227,694.907227 171.157227,694.907227 Z" id="Path" fill="#FFFFFF"></path>
            <path d="M171.157227,694.907227 L152.685547,688.59375 C152.685547,688.59375 154.941406,594.423828 121.142578,587.666016 C98.6181641,561.52832 124.755859,-520.795898 205.859375,584.057617 C205.859375,584.057617 177.919922,598.022461 172.963867,621.90918 C167.553711,645.341797 171.157227,694.907227 171.157227,694.907227 Z" id="Path" fill="#A6A385"></path>
            <path d="M181.074219,603.886719 C181.074219,603.886719 342.841797,497.543945 304.985352,276.298828 C268.491211,115.444336 182.426758,62.7246094 172.963867,42.4462891 C162.602539,28.0273438 152.685547,2.79785156 152.685547,2.79785156 L159.448242,450.229492 C159.448242,450.683594 145.478516,587.211914 181.079102,603.891602" id="Path" fill="#FFFFFF"></path>
            <path d="M181.074219,603.886719 C181.074219,603.886719 342.841797,497.543945 304.985352,276.298828 C268.491211,115.444336 182.426758,62.7246094 172.963867,42.4462891 C162.602539,28.0273438 152.685547,2.79785156 152.685547,2.79785156 L159.448242,450.229492 C159.448242,450.683594 145.478516,587.211914 181.079102,603.891602" id="Path" fill="#499D4A"></path>
            <path d="M143.227539,609.741211 C143.227539,609.741211 -8.62792969,506.103516 0.385742188,323.618164 C8.9453125,141.12793 116.186523,51.4599609 136.914062,35.2392578 C150.43457,20.8203125 150.883789,15.4101563 151.787109,0.991210938 C161.25,21.2695313 159.448242,304.243164 160.795898,337.583008 C164.848633,466.000977 153.588867,585.415039 143.227539,609.741211 Z" id="Path" fill="#FFFFFF"></path>
            <path d="M143.227539,609.741211 C143.227539,609.741211 -8.62792969,506.103516 0.385742188,323.618164 C8.9453125,141.12793 116.186523,51.4599609 136.914062,35.2392578 C150.43457,20.8203125 150.883789,15.4101563 151.787109,0.991210938 C161.25,21.2695313 159.448242,304.243164 160.795898,337.583008 C164.848633,466.000977 153.588867,585.415039 143.227539,609.741211 Z" id="Path" fill="#58AA50"></path>
        </g>
    </g>
</svg>