<?xml version="1.0" encoding="UTF-8"?>
<svg width="155px" height="155px" viewBox="0 0 155 155" version="1.1" xmlns="http://www.w3.org/2000/svg" xmlns:xlink="http://www.w3.org/1999/xlink">
    <!-- Generator: Sketch 52.3 (67297) - http://www.bohemiancoding.com/sketch -->
    <title>Artboard</title>
    <desc>Created with Sketch.</desc>
    <g id="Artboard" stroke="none" stroke-width="1" fill="none" fill-rule="evenodd">
        <g id="nodejs" transform="translate(13.000000, 4.000000)" fill="#689F63">
            <path d="M64.5294981,146.240204 C62.5828303,146.240204 60.6494959,145.729537 58.9428283,144.74687 L41.1601515,134.218864 C38.50415,132.73353 39.8001508,132.208196 40.6761513,131.905529 C44.2174866,130.665529 44.9361537,130.385529 48.7161558,128.238861 C49.1134894,128.012194 49.6334897,128.092194 50.0401566,128.332194 L63.7014976,136.438865 C64.1948312,136.705532 64.8948316,136.705532 65.3521652,136.438865 L118.618862,105.692181 C119.112196,105.412181 119.432196,104.838847 119.432196,104.25218 L119.432196,42.785479 C119.432196,42.1721453 119.112196,41.6254784 118.608195,41.3188115 L65.3628319,10.5987942 C64.8694983,10.3054607 64.2161646,10.3054607 63.722831,10.5987942 L10.4881342,41.3188115 C9.97213392,41.612145 9.64413374,42.1854787 9.64413374,42.7721457 L9.64413374,104.238847 C9.64413374,104.825514 9.96413392,105.385514 10.4708009,105.665515 L25.0574758,114.092186 C32.9774803,118.052188 37.817483,113.385519 37.817483,108.692183 L37.817483,48.025482 C37.817483,47.1588148 38.4974834,46.4921478 39.3641505,46.4921478 L46.110821,46.4921478 C46.9508215,46.4921478 47.6441552,47.1588148 47.6441552,48.025482 L47.6441552,108.71885 C47.6441552,119.278856 41.884152,125.345526 31.870813,125.345526 C28.7908112,125.345526 26.3641432,125.345526 19.590806,122.01219 L5.61746479,113.958853 C2.16412951,111.958851 0.0307949703,108.225516 0.0307949703,104.238847 L0.0307949703,42.7721457 C0.0307949703,38.7721434 2.16412951,35.038808 5.61746479,33.0654735 L58.9374949,2.30545614 C62.3108302,0.398788397 66.7908327,0.398788397 70.1375013,2.30545614 L123.390865,33.0788069 C126.830867,35.0654747 128.977535,38.7854768 128.977535,42.785479 L128.977535,104.25218 C128.977535,108.238849 126.830867,111.958851 123.390865,113.958853 L70.1375013,144.71887 C68.4308336,145.705537 66.4974992,146.212204 64.5241648,146.212204" id="Path"></path>
            <path d="M80.9828407,103.885514 C57.6761609,103.885514 52.7894915,93.1868408 52.7894915,84.2135024 C52.7894915,83.3601686 53.4774918,82.6801682 54.332159,82.6801682 L61.2121629,82.6801682 C61.9721633,82.6801682 62.6121637,83.2335019 62.7321637,83.984169 C63.7721643,90.9948396 66.8654994,94.5308416 80.9588407,94.5308416 C92.1855137,94.5308416 96.9588497,91.9948402 96.9588497,86.0415035 C96.9588497,82.6148349 95.598849,80.0681668 78.1588391,78.3614991 C63.5721642,76.9214983 54.5588258,73.7081632 54.5588258,62.0414899 C54.5588258,51.2948172 63.6254976,44.8948135 78.8121728,44.8948135 C95.8655158,44.8948135 104.318854,50.8148169 105.385521,63.5348241 C105.425521,63.9748243 105.265521,64.4014912 104.972188,64.7214914 C104.678854,65.0281583 104.265521,65.214825 103.838854,65.214825 L96.9188497,65.214825 C96.1988493,65.214825 95.5721823,64.7081581 95.4255155,64.0148243 C93.7588479,56.6414868 89.732179,54.2814855 78.7855061,54.2814855 C66.5321659,54.2814855 65.1054984,58.5481546 65.1054984,61.7481564 C65.1054984,65.6281586 66.7854994,66.7614926 83.318842,68.9481605 C99.6921846,71.121495 107.465522,74.1881634 107.465522,85.6948366 C107.465522,97.2948432 97.7855169,103.94818 80.9055073,103.94818 L80.9828407,103.885514 Z" id="Shape" fill-rule="nonzero"></path>
        </g>
    </g>
</svg>