<?xml version="1.0" encoding="UTF-8"?>
<svg width="2612px" height="2613px" viewBox="0 0 2612 2613" version="1.1" xmlns="http://www.w3.org/2000/svg" xmlns:xlink="http://www.w3.org/1999/xlink">
    <!-- Generator: Sketch 52.3 (67297) - http://www.bohemiancoding.com/sketch -->
    <title>  </title>
    <desc>Created with Sketch.</desc>
    <g id="--" stroke="none" stroke-width="1" fill="none" fill-rule="evenodd">
        <g id="php" transform="translate(56.000000, 652.000000)">
            <ellipse id="Oval" fill="#8993BE" cx="1250" cy="650.885597" rx="1250" ry="650.885597"></ellipse>
            <path d="M351.025391,1036.27864 L488.017578,342.567254 L804.785156,342.567254 C941.767578,351.134366 1010.26367,419.641955 1010.26367,539.552216 C1010.26367,745.094522 847.597656,864.995015 702.041016,856.427903 L547.949219,856.427903 L513.701172,1036.27864 L351.025391,1036.27864 Z M582.1875,727.970067 L582.197266,727.970067 L684.931641,727.970067 C761.982422,719.402955 830.478516,693.711388 839.033203,548.10956 C839.033203,496.726425 796.230469,471.034858 736.298828,471.034858 L625,471.034858 L582.1875,727.970067 Z M978.4375,856.427903 L1115.41992,162.726284 L1278.0957,162.726284 L1243.84766,342.567254 L1397.94922,342.567254 C1534.94141,351.134366 1586.30859,419.641955 1569.18945,505.293537 L1509.25781,856.427903 L1338.02734,856.427903 L1397.95898,539.552216 C1406.51367,496.726425 1406.51367,471.034858 1346.5918,471.034858 L1218.16406,471.034858 L1141.11328,856.427903 L978.4375,856.427903 Z M1498.29102,1036.27864 L1635.27344,342.567254 L1952.05078,342.567254 C2089.04297,351.134366 2157.53906,419.641955 2157.53906,539.552216 C2157.53906,745.094522 1994.86328,864.995015 1849.31641,856.427903 L1695.20508,856.427903 L1660.95703,1036.27864 L1498.29102,1036.27864 Z M1729.44336,727.970067 L1729.45313,727.970067 L1832.19727,727.970067 C1909.24805,719.402955 1977.74414,693.711388 1986.29883,548.10956 C1986.29883,496.726425 1943.49609,471.034858 1883.56445,471.034858 L1772.25586,471.034858 L1729.44336,727.970067 Z" id="Shape" fill="#232531" fill-rule="nonzero"></path>
        </g>
    </g>
</svg>