
<svg width="263px" height="197px" viewBox="0 0 263 197" version="1.1" xmlns="http://www.w3.org/2000/svg" xmlns:xlink="http://www.w3.org/1999/xlink">
    <defs>
        <path d="M70.906,203.644 C67.9833187,203.644 65.5401765,202.639343 63.5765,200.63 C61.6128235,198.620657 60.631,196.063349 60.631,192.958 C60.631,189.852651 61.6128235,187.295343 63.5765,185.286 C65.5401765,183.276657 67.9833187,182.272 70.906,182.272 C73.8286813,182.272 76.2489904,183.276657 78.167,185.286 C80.0850096,187.295343 81.044,189.852651 81.044,192.958 C81.044,196.063349 80.0850096,198.620657 78.167,200.63 C76.2489904,202.639343 73.8286813,203.644 70.906,203.644 Z M118.445,203.644 C113.786977,203.644 109.197523,202.753509 104.6765,200.9725 C100.155477,199.191491 96.2510164,196.97668 92.963,194.328 L100.361,184.19 C103.375015,186.564679 106.366152,188.41416 109.3345,189.7385 C112.302848,191.06284 115.522316,191.725 118.993,191.725 C122.646352,191.725 125.340658,190.971508 127.076,189.4645 C128.811342,187.957492 129.679,186.016679 129.679,183.642 C129.679,182.271993 129.268004,181.061839 128.446,180.0115 C127.623996,178.961161 126.528007,178.025004 125.158,177.203 C123.787993,176.380996 122.235342,175.627503 120.5,174.9425 C118.764658,174.257497 117.029342,173.54967 115.294,172.819 C113.101989,171.996996 110.864345,171.038005 108.581,169.942 C106.297655,168.845995 104.265509,167.521674 102.4845,165.969 C100.703491,164.416326 99.2421724,162.61251 98.1005,160.5575 C96.9588276,158.50249 96.388,156.059347 96.388,153.228 C96.388,147.291304 98.5799781,142.450685 102.964,138.706 C107.348022,134.961315 113.330295,133.089 120.911,133.089 C125.569023,133.089 129.770315,133.910992 133.515,135.555 C137.259685,137.199008 140.501986,139.071323 143.242,141.172 L135.981,150.762 C133.606321,149.026658 131.208845,147.633839 128.7885,146.5835 C126.368155,145.533161 123.83368,145.008 121.185,145.008 C117.80565,145.008 115.316841,145.715826 113.7185,147.1315 C112.120159,148.547174 111.321,150.305323 111.321,152.406 C111.321,153.776007 111.709163,154.940495 112.4855,155.8995 C113.261837,156.858505 114.289327,157.70333 115.568,158.434 C116.846673,159.16467 118.330825,159.849663 120.0205,160.489 C121.710175,161.128337 123.468324,161.767663 125.295,162.407 C127.578345,163.229004 129.861655,164.165161 132.145,165.2155 C134.428345,166.265839 136.506157,167.567326 138.3785,169.12 C140.250843,170.672674 141.757828,172.567822 142.8995,174.8055 C144.041172,177.043178 144.612,179.714651 144.612,182.82 C144.612,185.742681 144.041172,188.459821 142.8995,190.9715 C141.757828,193.483179 140.091011,195.675157 137.899,197.5475 C135.706989,199.419843 132.967016,200.903995 129.679,202 C126.390984,203.096005 122.646354,203.644 118.445,203.644 Z M158.723,202 L158.723,105.278 L174.478,105.278 L174.478,130.212 L173.93,143.227 C176.761347,140.57832 179.889483,138.22651 183.3145,136.1715 C186.739517,134.11649 190.780977,133.089 195.439,133.089 C202.654369,133.089 207.905984,135.395144 211.194,140.0075 C214.482016,144.619856 216.126,151.218624 216.126,159.804 L216.126,202 L200.371,202 L200.371,161.859 C200.371,156.287639 199.549008,152.360345 197.905,150.077 C196.260992,147.793655 193.566685,146.652 189.822,146.652 C186.899319,146.652 184.319178,147.359826 182.0815,148.7755 C179.843822,150.191174 177.309347,152.268986 174.478,155.009 L174.478,202 L158.723,202 Z" id="path-1"></path>
        <path d="M51.072,258.656 C46.8159787,258.656 43.1300156,258.200005 40.014,257.288 C36.8979844,256.375995 34.2760106,254.818011 32.148,252.614 C30.0199894,250.409989 28.4240053,247.446019 27.36,243.722 C26.2959947,239.997981 25.764,235.248029 25.764,229.472 C25.764,220.959957 26.067997,213.018037 26.676,205.646 C27.284003,198.273963 27.588,190.63604 27.588,182.732 C27.588,180.451989 27.3220027,178.172011 26.79,175.892 C26.2579973,173.611989 25.2700072,171.636008 23.826,169.964 C22.3819928,168.291992 20.3680129,166.924005 17.784,165.86 C15.1999871,164.795995 11.9320198,164.264 7.98,164.264 L7.98,156.968 C11.9320198,156.968 15.1999871,156.436005 17.784,155.372 C20.3680129,154.307995 22.3819928,152.940008 23.826,151.268 C25.2700072,149.595992 26.2579973,147.696011 26.79,145.568 C27.3220027,143.439989 27.588,141.236011 27.588,138.956 C27.588,130.747959 27.284003,122.958037 26.676,115.586 C26.067997,108.213963 25.764,100.272043 25.764,91.76 C25.764,85.9839711 26.2959947,81.2340186 27.36,77.51 C28.4240053,73.7859814 30.0199894,70.822011 32.148,68.618 C34.2760106,66.413989 36.8979844,64.8560046 40.014,63.944 C43.1300156,63.0319954 46.8159787,62.576 51.072,62.576 L58.824,62.576 L58.824,69.188 L51.756,69.188 C44.763965,69.188 40.0900118,71.087981 37.734,74.888 C35.3779882,78.688019 34.2,84.6159597 34.2,92.672 C34.2,100.120037 34.4279977,107.225966 34.884,113.99 C35.3400023,120.754034 35.568,128.239959 35.568,136.448 C35.568,143.288034 34.770008,148.607981 33.174,152.408 C31.577992,156.208019 28.5000228,158.791993 23.94,160.16 L23.94,161.072 C28.5000228,162.440007 31.577992,165.09998 33.174,169.052 C34.770008,173.00402 35.568,178.247967 35.568,184.784 C35.568,192.992041 35.3400023,200.477966 34.884,207.242 C34.4279977,214.006034 34.2,221.111963 34.2,228.56 C34.2,236.61604 35.3779882,242.543981 37.734,246.344 C40.0900118,250.144019 44.763965,252.044 51.756,252.044 L58.824,252.044 L58.824,258.656 L51.072,258.656 Z" id="path-2"></path>
        <path d="M218.788,258.656 L218.788,252.044 L225.856,252.044 C232.848035,252.044 237.521988,250.144019 239.878,246.344 C242.234012,242.543981 243.412,236.61604 243.412,228.56 C243.412,221.111963 243.184002,214.006034 242.728,207.242 C242.271998,200.477966 242.044,192.992041 242.044,184.784 C242.044,178.247967 242.879992,173.00402 244.552,169.052 C246.224008,165.09998 249.263978,162.440007 253.672,161.072 L253.672,160.16 C249.263978,158.791993 246.224008,156.208019 244.552,152.408 C242.879992,148.607981 242.044,143.288034 242.044,136.448 C242.044,128.239959 242.271998,120.754034 242.728,113.99 C243.184002,107.225966 243.412,100.120037 243.412,92.672 C243.412,84.6159597 242.234012,78.688019 239.878,74.888 C237.521988,71.087981 232.848035,69.188 225.856,69.188 L218.788,69.188 L218.788,62.576 L226.54,62.576 C230.796021,62.576 234.481984,63.0319954 237.598,63.944 C240.714016,64.8560046 243.335989,66.413989 245.464,68.618 C247.592011,70.822011 249.187995,73.7859814 250.252,77.51 C251.316005,81.2340186 251.848,85.9839711 251.848,91.76 C251.848,100.272043 251.544003,108.213963 250.936,115.586 C250.327997,122.958037 250.024,130.747959 250.024,138.956 C250.024,141.236011 250.289997,143.439989 250.822,145.568 C251.354003,147.696011 252.341993,149.595992 253.786,151.268 C255.230007,152.940008 257.243987,154.307995 259.828,155.372 C262.412013,156.436005 265.67998,156.968 269.632,156.968 L269.632,164.264 C265.67998,164.264 262.412013,164.795995 259.828,165.86 C257.243987,166.924005 255.230007,168.291992 253.786,169.964 C252.341993,171.636008 251.354003,173.611989 250.822,175.892 C250.289997,178.172011 250.024,180.451989 250.024,182.732 C250.024,190.63604 250.327997,198.273963 250.936,205.646 C251.544003,213.018037 251.848,220.959957 251.848,229.472 C251.848,235.248029 251.316005,239.997981 250.252,243.722 C249.187995,247.446019 247.592011,250.409989 245.464,252.614 C243.335989,254.818011 240.714016,256.375995 237.598,257.288 C234.481984,258.200005 230.796021,258.656 226.54,258.656 L218.788,258.656 Z" id="path-3"></path>
    </defs>
    <g id="Page-1" stroke="none" stroke-width="1" fill="none" fill-rule="evenodd">
        <g id="Artboard">
            <g id="2" transform="translate(-7.000000, -62.000000)">
                <rect id="Rectangle" x="8" y="38" width="261" height="261"></rect>
                <g id=".sh">
                    <use fill="#FFFFFF" xlink:href="#path-1"></use>
                    <use fill="#663399" xlink:href="#path-1"></use>
                </g>
                <g id="braces">
                    <g id="{">
                        <use fill="#FFFFFF" xlink:href="#path-2"></use>
                        <use fill="#663399" xlink:href="#path-2"></use>
                    </g>
                    <g id="}">
                        <use fill="#FFFFFF" xlink:href="#path-3"></use>
                        <use fill="#663399" xlink:href="#path-3"></use>
                    </g>
                </g>
            </g>
        </g>
    </g>
</svg>